PathFileType	4	(X/Y/Z)	 2.5Hzlow3min.trc
DataRate	CameraRate	NumFrames	NumMarkers	Units	OrigDataRate	OrigDataStartFrame	OrigNumFrames
200	200	9	43	m	200	501	1000
Frame#	Time	C7			LSH			RSH			MAN			RASI			LASI			HIPR			HIPL			RPSI			LPSI			COX			RTHI1			RTHI2			RTHI3			RTHI4			RLKN			RMKN			RSHA1			RSHA2			RSHA3			RSHA4			RLMAL			RMMAL			RHEEL			RMET5			RMET1			RTOE			LTHI1			LTHI2			LTHI3			LTHI4			LLKN			LMKN			LSHA1			LSHA2			LSHA3			LSHA4			LLMAL			LMMAL			LHEEL			LMET5			LMET1			LTOE			
		X1	Y1	Z1	X2	Y2	Z2	X3	Y3	Z3	X4	Y4	Z4	X5	Y5	Z5	X6	Y6	Z6	X7	Y7	Z7	X8	Y8	Z8	X9	Y9	Z9	X10	Y10	Z10	X11	Y11	Z11	X12	Y12	Z12	X13	Y13	Z13	X14	Y14	Z14	X15	Y15	Z15	X16	Y16	Z16	X17	Y17	Z17	X18	Y18	Z18	X19	Y19	Z19	X20	Y20	Z20	X21	Y21	Z21	X22	Y22	Z22	X23	Y23	Z23	X24	Y24	Z24	X25	Y25	Z25	X26	Y26	Z26	X27	Y27	Z27	X28	Y28	Z28	X29	Y29	Z29	X30	Y30	Z30	X31	Y31	Z31	X32	Y32	Z32	X33	Y33	Z33	X34	Y34	Z34	X35	Y35	Z35	X36	Y36	Z36	X37	Y37	Z37	X38	Y38	Z38	X39	Y39	Z39	X40	Y40	Z40	X41	Y41	Z41	X42	Y42	Z42	X43	Y43	Z43	
501	2.5050	-0.226108	1.511538	-0.523909	-0.142320	1.475351	-0.724198	-0.117036	1.486658	-0.330430	-0.086204	1.453496	-0.528909	-0.058224	1.012035	-0.385401	-0.060976	1.005757	-0.630166	-0.141395	1.062863	-0.346414	-0.136603	1.042105	-0.666198	-0.237948	1.047456	-0.448818	-0.241520	1.041842	-0.546898	-0.244538	1.042923	-0.497356	-0.131774	0.746632	-0.314393	-0.116338	0.688571	-0.316142	-0.053024	0.701454	-0.314407	-0.059974	0.762794	-0.312391	-0.091159	0.492754	-0.328672	-0.070880	0.467730	-0.443303	-0.190982	0.323633	-0.306294	-0.210770	0.285423	-0.314261	-0.140630	0.303428	-0.312187	-0.152408	0.265719	-0.314956	-0.265993	0.118850	-0.337679	-0.237511	0.114909	-0.420675	-0.316758	0.114449	-0.393100	-0.176917	0.031831	-0.310338	-0.122491	0.043373	-0.385742	-0.101724	0.034434	-0.389288	-0.131558	0.752632	-0.691357	-0.113850	0.693715	-0.690977	-0.050175	0.706355	-0.694363	-0.060429	0.765550	-0.696020	-0.080170	0.490024	-0.677363	-0.067081	0.477077	-0.561045	-0.195658	0.325127	-0.684714	-0.212973	0.289328	-0.676570	-0.156021	0.266933	-0.677817	-0.144251	0.308233	-0.686055	-0.272101	0.126755	-0.658051	-0.236376	0.123881	-0.577147	-0.321885	0.127975	-0.597413	-0.192840	0.034040	-0.684013	-0.139473	0.039002	-0.608394	-0.114316	0.032584	-0.616994	
502	2.5100	-0.225633	1.506214	-0.523783	-0.141649	1.469725	-0.724196	-0.116451	1.480735	-0.330322	-0.085687	1.447503	-0.528819	-0.059154	1.006426	-0.385352	-0.061427	0.999922	-0.630304	-0.142539	1.057265	-0.346428	-0.137105	1.036212	-0.666493	-0.238940	1.042002	-0.449201	-0.242323	1.036151	-0.547228	-0.245474	1.037309	-0.497703	-0.131715	0.740996	-0.314358	-0.115798	0.683071	-0.316091	-0.052596	0.696469	-0.314297	-0.060115	0.757715	-0.312241	-0.089107	0.487553	-0.329028	-0.068557	0.462673	-0.443407	-0.190240	0.319514	-0.306937	-0.210507	0.281518	-0.314671	-0.140084	0.298876	-0.312988	-0.152244	0.261331	-0.315718	-0.267493	0.116214	-0.338572	-0.239368	0.111979	-0.421752	-0.318626	0.111268	-0.393880	-0.177690	0.031266	-0.310043	-0.122916	0.043166	-0.386080	-0.102064	0.034246	-0.389624	-0.131689	0.746466	-0.691753	-0.113672	0.687610	-0.691268	-0.050063	0.700564	-0.694749	-0.060608	0.759716	-0.696468	-0.078495	0.484368	-0.677035	-0.065986	0.471411	-0.560910	-0.195012	0.320328	-0.685046	-0.212689	0.284755	-0.676933	-0.155904	0.261934	-0.677404	-0.143757	0.303110	-0.685816	-0.274099	0.123780	-0.658186	-0.239048	0.120742	-0.576893	-0.324443	0.124620	-0.597988	-0.193764	0.032796	-0.685232	-0.139909	0.038976	-0.608588	-0.114459	0.032452	-0.616980	
503	2.5150	-0.225128	1.500945	-0.523653	-0.140982	1.464034	-0.724211	-0.115893	1.474723	-0.330172	-0.085076	1.441450	-0.528714	-0.060068	1.000639	-0.385271	-0.061857	0.993891	-0.630510	-0.143762	1.051490	-0.346393	-0.137626	1.030101	-0.666849	-0.240017	1.036435	-0.449641	-0.243163	1.030325	-0.547626	-0.246462	1.031554	-0.498095	-0.131633	0.735287	-0.314305	-0.115179	0.677517	-0.316069	-0.052113	0.691481	-0.314172	-0.060274	0.752630	-0.312013	-0.086903	0.482387	-0.329490	-0.066160	0.457769	-0.443657	-0.189195	0.315425	-0.307779	-0.209868	0.277690	-0.315294	-0.139224	0.294411	-0.313998	-0.151722	0.257058	-0.316691	-0.268707	0.113581	-0.339788	-0.240807	0.109039	-0.423102	-0.320124	0.108083	-0.395131	-0.178355	0.030849	-0.309921	-0.123145	0.042967	-0.386509	-0.102220	0.034069	-0.390018	-0.131897	0.740113	-0.692051	-0.113550	0.681344	-0.691504	-0.050026	0.694630	-0.695230	-0.060886	0.753738	-0.697032	-0.076920	0.478686	-0.676711	-0.064922	0.465693	-0.560853	-0.194448	0.315631	-0.685313	-0.212508	0.280311	-0.677194	-0.155904	0.257031	-0.676905	-0.143352	0.298062	-0.685529	-0.275954	0.120924	-0.658334	-0.241627	0.117710	-0.576640	-0.326916	0.121373	-0.598597	-0.194644	0.031788	-0.686364	-0.140438	0.038982	-0.608763	-0.114723	0.032359	-0.617017	
504	2.5200	-0.224571	1.495843	-0.523545	-0.140325	1.458323	-0.724255	-0.115363	1.468665	-0.329977	-0.084360	1.435397	-0.528598	-0.060963	0.994710	-0.385152	-0.062267	0.987689	-0.630796	-0.145087	1.045561	-0.346296	-0.138178	1.023782	-0.667269	-0.241186	1.030783	-0.450140	-0.244036	1.024391	-0.548079	-0.247487	1.025684	-0.498544	-0.131519	0.729595	-0.314249	-0.114485	0.672004	-0.316089	-0.051575	0.686574	-0.314054	-0.060379	0.747633	-0.311761	-0.084570	0.477324	-0.330065	-0.063756	0.453103	-0.444077	-0.187864	0.311411	-0.308808	-0.208864	0.273951	-0.316165	-0.138068	0.290068	-0.315226	-0.150862	0.252906	-0.317909	-0.269654	0.111002	-0.341332	-0.241828	0.106138	-0.424739	-0.321281	0.104944	-0.396883	-0.178871	0.030584	-0.309999	-0.123193	0.042785	-0.386948	-0.102200	0.033908	-0.390386	-0.132161	0.733644	-0.692254	-0.113455	0.674986	-0.691680	-0.050033	0.688630	-0.695752	-0.061245	0.747676	-0.697641	-0.075525	0.473080	-0.676416	-0.063851	0.460030	-0.560897	-0.193928	0.311110	-0.685525	-0.212383	0.276055	-0.677400	-0.155976	0.252311	-0.676391	-0.143020	0.293192	-0.685233	-0.277618	0.118118	-0.658437	-0.244013	0.114749	-0.576357	-0.329233	0.118160	-0.599127	-0.195427	0.030938	-0.687349	-0.140998	0.038976	-0.608856	-0.115026	0.032293	-0.617040	
505	2.5250	-0.223949	1.490993	-0.523482	-0.139682	1.452635	-0.724335	-0.114870	1.462609	-0.329739	-0.083560	1.429407	-0.528476	-0.061830	0.988679	-0.384984	-0.062641	0.981351	-0.631173	-0.146511	1.039500	-0.346129	-0.138764	1.017273	-0.667745	-0.242445	1.025087	-0.450703	-0.244944	1.018390	-0.548577	-0.248523	1.019761	-0.499061	-0.131373	0.724046	-0.314205	-0.113744	0.666653	-0.316162	-0.051001	0.681864	-0.313966	-0.060449	0.742823	-0.311504	-0.082185	0.472436	-0.330750	-0.061378	0.448753	-0.444662	-0.186330	0.307521	-0.310036	-0.207606	0.270320	-0.317341	-0.136697	0.285880	-0.316695	-0.149751	0.248891	-0.319418	-0.270390	0.108547	-0.343230	-0.242456	0.103339	-0.426658	-0.322107	0.101927	-0.399157	-0.179305	0.030445	-0.310285	-0.123117	0.042612	-0.387387	-0.102050	0.033760	-0.390704	-0.132460	0.727227	-0.692393	-0.113385	0.668707	-0.691807	-0.050076	0.682715	-0.696274	-0.061649	0.741696	-0.698257	-0.074392	0.467652	-0.676177	-0.062790	0.454542	-0.561046	-0.193440	0.306830	-0.685689	-0.212263	0.272011	-0.677561	-0.156065	0.247832	-0.675878	-0.142716	0.288596	-0.684906	-0.279104	0.115297	-0.658426	-0.246117	0.111847	-0.575998	-0.331355	0.114924	-0.599442	-0.196093	0.030227	-0.688156	-0.141482	0.038970	-0.608894	-0.115252	0.032235	-0.617030	
506	2.5300	-0.223269	1.486480	-0.523474	-0.139053	1.447042	-0.724456	-0.114443	1.456599	-0.329471	-0.082690	1.423580	-0.528354	-0.062657	0.982600	-0.384748	-0.062967	0.974910	-0.631657	-0.148064	1.033338	-0.345894	-0.139391	1.010613	-0.668282	-0.243785	1.019399	-0.451348	-0.245879	1.012400	-0.549058	-0.249534	1.013891	-0.499669	-0.131214	0.718787	-0.314194	-0.112991	0.661594	-0.316289	-0.050425	0.677446	-0.313913	-0.060500	0.738308	-0.311266	-0.079819	0.467793	-0.331557	-0.059038	0.444760	-0.445378	-0.184717	0.303801	-0.311479	-0.206227	0.266841	-0.318817	-0.135233	0.281903	-0.318382	-0.148510	0.245060	-0.321195	-0.270972	0.106283	-0.345478	-0.242738	0.100683	-0.428821	-0.322667	0.099123	-0.401908	-0.179727	0.030429	-0.310772	-0.122957	0.042455	-0.387846	-0.101824	0.033630	-0.390974	-0.132797	0.721110	-0.692523	-0.113363	0.662723	-0.691920	-0.050164	0.677081	-0.696759	-0.062091	0.735991	-0.698826	-0.073579	0.462528	-0.676017	-0.061795	0.449355	-0.561287	-0.192983	0.302809	-0.685795	-0.212136	0.268188	-0.677662	-0.156131	0.243638	-0.675371	-0.142438	0.284305	-0.684561	-0.280453	0.112450	-0.658214	-0.247930	0.108985	-0.575505	-0.333275	0.111631	-0.599416	-0.196633	0.029662	-0.688791	-0.141856	0.038949	-0.608910	-0.115392	0.032190	-0.617020	
507	2.5350	-0.222521	1.482331	-0.523535	-0.138472	1.441639	-0.724628	-0.114091	1.450703	-0.329190	-0.081801	1.418015	-0.528234	-0.063431	0.976540	-0.384416	-0.063237	0.968418	-0.632254	-0.149801	1.027109	-0.345599	-0.140062	1.003842	-0.668881	-0.245176	1.013798	-0.452109	-0.246828	1.006542	-0.549449	-0.250484	1.008247	-0.500365	-0.131076	0.713946	-0.314249	-0.112277	0.656953	-0.316479	-0.049892	0.673397	-0.313885	-0.060537	0.734176	-0.311066	-0.077538	0.463483	-0.332447	-0.056743	0.441161	-0.446179	-0.183152	0.300331	-0.313146	-0.204840	0.263591	-0.320578	-0.133814	0.278190	-0.320222	-0.147286	0.241470	-0.323161	-0.271403	0.104215	-0.347977	-0.242755	0.098227	-0.431172	-0.323014	0.096571	-0.404993	-0.180173	0.030521	-0.311453	-0.122763	0.042304	-0.388328	-0.101567	0.033511	-0.391208	-0.133186	0.715508	-0.692673	-0.113435	0.657238	-0.692072	-0.050331	0.671919	-0.697216	-0.062579	0.730768	-0.699338	-0.073128	0.457806	-0.675939	-0.060914	0.444573	-0.561594	-0.192615	0.299042	-0.685813	-0.212034	0.264580	-0.677664	-0.156192	0.239735	-0.674842	-0.142212	0.280322	-0.684177	-0.281721	0.109604	-0.657741	-0.249442	0.106186	-0.574832	-0.334995	0.108332	-0.598977	-0.197075	0.029251	-0.689245	-0.142148	0.038922	-0.608901	-0.115478	0.032158	-0.617018	
508	2.5400	-0.221735	1.478534	-0.523655	-0.137939	1.436513	-0.724838	-0.113834	1.445012	-0.328909	-0.080944	1.412831	-0.528113	-0.064135	0.970595	-0.383965	-0.063449	0.961935	-0.632967	-0.151715	1.020897	-0.345237	-0.140778	0.997010	-0.669548	-0.246573	1.008404	-0.453001	-0.247761	1.000986	-0.549700	-0.251346	1.002987	-0.501127	-0.130994	0.709614	-0.314404	-0.111667	0.652804	-0.316745	-0.049458	0.669782	-0.313865	-0.060601	0.730471	-0.310907	-0.075456	0.459555	-0.333407	-0.054501	0.437952	-0.447024	-0.181765	0.297172	-0.314986	-0.203584	0.260636	-0.322563	-0.132549	0.274812	-0.322121	-0.146197	0.238174	-0.325230	-0.271717	0.102332	-0.350626	-0.242599	0.095976	-0.433639	-0.323215	0.094264	-0.408297	-0.180669	0.030693	-0.312302	-0.122563	0.042157	-0.388837	-0.101306	0.033403	-0.391419	-0.133664	0.710623	-0.692870	-0.113658	0.652440	-0.692284	-0.050630	0.667388	-0.697671	-0.063143	0.726177	-0.699809	-0.073048	0.453567	-0.675944	-0.060200	0.440288	-0.561929	-0.192425	0.295534	-0.685658	-0.212045	0.261201	-0.677472	-0.156328	0.236142	-0.674245	-0.142139	0.276660	-0.683717	-0.282957	0.106819	-0.656950	-0.250706	0.103468	-0.573940	-0.336494	0.105103	-0.598070	-0.197482	0.028962	-0.689499	-0.142385	0.038897	-0.608871	-0.115535	0.032137	-0.617052	
509	2.5450	-0.220965	1.475075	-0.523816	-0.137448	1.431752	-0.725064	-0.113693	1.439614	-0.328643	-0.080192	1.408125	-0.527995	-0.064757	0.964873	-0.383365	-0.063589	0.955527	-0.633796	-0.153834	1.014788	-0.344836	-0.141594	0.990208	-0.670289	-0.247923	1.003356	-0.454010	-0.248654	0.995911	-0.549802	-0.252104	0.998261	-0.501930	-0.131002	0.705817	-0.314686	-0.111215	0.649168	-0.317098	-0.049165	0.666600	-0.313857	-0.060754	0.727198	-0.310780	-0.073675	0.456088	-0.334385	-0.052350	0.435146	-0.447884	-0.180664	0.294389	-0.316944	-0.202541	0.258012	-0.324716	-0.131517	0.271842	-0.323992	-0.145354	0.235265	-0.327227	-0.271968	0.100612	-0.353345	-0.242334	0.093929	-0.436122	-0.323293	0.092190	-0.411669	-0.181216	0.030918	-0.313256	-0.122372	0.042015	-0.389355	-0.101061	0.033309	-0.391618	-0.134269	0.706588	-0.693094	-0.114099	0.648465	-0.692548	-0.051130	0.663581	-0.698153	-0.063816	0.722337	-0.700269	-0.073339	0.449854	-0.676012	-0.059700	0.436548	-0.562257	-0.192514	0.292310	-0.685274	-0.212257	0.258069	-0.676996	-0.156627	0.232862	-0.673537	-0.142297	0.273331	-0.683155	-0.284176	0.104173	-0.655824	-0.251710	0.100873	-0.572819	-0.337765	0.102003	-0.596684	-0.197904	0.028781	-0.689549	-0.142573	0.038887	-0.608824	-0.115582	0.032128	-0.617131	
